<svg width="16" height="16" viewBox="0 0 16 16" fill="none" xmlns="http://www.w3.org/2000/svg">
<g opacity="0.8">
<path fill-rule="evenodd" clip-rule="evenodd" d="M1.92047 1.44043C1.12647 1.44043 0.480469 2.08643 0.480469 2.88043C0.480469 3.67443 1.12647 4.32043 1.92047 4.32043C2.71447 4.32043 3.36047 3.67443 3.36047 2.88043C3.36047 2.08643 2.71447 1.44043 1.92047 1.44043ZM1.92047 2.40043C2.18447 2.40043 2.40047 2.61643 2.40047 2.88043C2.40047 3.14443 2.18447 3.36043 1.92047 3.36043C1.65647 3.36043 1.44047 3.14443 1.44047 2.88043C1.44047 2.61643 1.65647 2.40043 1.92047 2.40043ZM1.92047 6.24043C1.12647 6.24043 0.480469 6.88643 0.480469 7.68043C0.480469 8.47443 1.12647 9.12043 1.92047 9.12043C2.71447 9.12043 3.36047 8.47443 3.36047 7.68043C3.36047 6.88643 2.71447 6.24043 1.92047 6.24043ZM1.92047 7.20043C2.18447 7.20043 2.40047 7.41643 2.40047 7.68043C2.40047 7.94443 2.18447 8.16043 1.92047 8.16043C1.65647 8.16043 1.44047 7.94443 1.44047 7.68043C1.44047 7.41643 1.65647 7.20043 1.92047 7.20043ZM1.92047 11.0404C1.12647 11.0404 0.480469 11.6864 0.480469 12.4804C0.480469 13.2744 1.12647 13.9204 1.92047 13.9204C2.71447 13.9204 3.36047 13.2744 3.36047 12.4804C3.36047 11.6864 2.71447 11.0404 1.92047 11.0404ZM1.92047 12.0004C2.18447 12.0004 2.40047 12.2164 2.40047 12.4804C2.40047 12.7444 2.18447 12.9604 1.92047 12.9604C1.65647 12.9604 1.44047 12.7444 1.44047 12.4804C1.44047 12.2164 1.65647 12.0004 1.92047 12.0004ZM4.80047 3.36043H14.4005C14.6645 3.36043 14.8805 3.14443 14.8805 2.88043C14.8805 2.61643 14.6645 2.40043 14.4005 2.40043H4.80047C4.53647 2.40043 4.32047 2.61643 4.32047 2.88043C4.32047 3.14443 4.53647 3.36043 4.80047 3.36043ZM4.80047 8.16043H14.4005C14.6645 8.16043 14.8805 7.94443 14.8805 7.68043C14.8805 7.41643 14.6645 7.20043 14.4005 7.20043H4.80047C4.53647 7.20043 4.32047 7.41643 4.32047 7.68043C4.32047 7.94443 4.53647 8.16043 4.80047 8.16043ZM4.80047 12.9604H14.4005C14.6645 12.9604 14.8805 12.7444 14.8805 12.4804C14.8805 12.2164 14.6645 12.0004 14.4005 12.0004H4.80047C4.53647 12.0004 4.32047 12.2164 4.32047 12.4804C4.32047 12.7444 4.53647 12.9604 4.80047 12.9604Z" fill="black"/>
</g>
</svg>
